<?xml version="1.0" encoding="iso-8859-1"?>
<!-- Uploaded to: SVG Repo, www.svgrepo.com, Generator: SVG Repo Mixer Tools -->
<svg version="1.1" id="Layer_1" xmlns="http://www.w3.org/2000/svg" xmlns:xlink="http://www.w3.org/1999/xlink" 
	 viewBox="0 0 392.533 392.533" xml:space="preserve">
<path style="fill:#FFFFFF;" d="M324.331,32.711c0-6.012-4.848-10.925-10.925-10.925H79.127c-6.012,0-10.925,4.848-10.925,10.925
	v327.111c0,6.012,4.848,10.925,10.925,10.925h234.279c6.012,0,10.925-4.848,10.925-10.925V32.711z"/>
<rect x="111.903" y="65.422" style="fill:#56ACE0;" width="168.857" height="56.824"/>
<rect x="260.331" y="240.937" style="fill:#FFC10D;" width="20.428" height="90.182"/>
<g>
	<path style="fill:#194F82;" d="M313.406,0H79.127C61.091,0,46.416,14.675,46.416,32.711v327.111
		c0,18.036,14.675,32.711,32.711,32.711h234.279c18.036,0,32.711-14.675,32.711-32.711V32.711C346.117,14.675,331.442,0,313.406,0z
		 M324.331,359.822c0,6.012-4.848,10.925-10.925,10.925H79.127c-6.012,0-10.925-4.848-10.925-10.925V32.711
		c0-6.012,4.848-10.925,10.925-10.925h234.279c6.012,0,10.925,4.848,10.925,10.925V359.822z"/>
	<path style="fill:#194F82;" d="M291.62,43.572H100.913c-6.012,0-10.925,4.848-10.925,10.925v78.61
		c0,6.012,4.848,10.925,10.925,10.925h190.642c6.012,0,10.925-4.848,10.925-10.925V54.562
		C302.545,48.549,297.568,43.572,291.62,43.572z M280.63,122.246H111.903V65.422H280.76v56.824H280.63z"/>
	<path style="fill:#194F82;" d="M127.871,168.921h-26.893c-6.012,0-10.925,4.848-10.925,10.925c0,6.012,4.848,10.925,10.925,10.925
		h26.893c6.012,0,10.925-4.848,10.925-10.925S133.883,168.921,127.871,168.921z"/>
	<path style="fill:#194F82;" d="M198.788,168.921h-26.893c-6.012,0-10.925,4.848-10.925,10.925c0,6.012,4.848,10.925,10.925,10.925
		h26.893c6.012,0,10.925-4.848,10.925-10.925S204.865,168.921,198.788,168.921z"/>
	<path style="fill:#194F82;" d="M127.871,223.03h-26.893c-6.012,0-10.925,4.848-10.925,10.925c0,6.012,4.848,10.925,10.925,10.925
		h26.893c6.012,0,10.925-4.848,10.925-10.925C138.796,227.879,133.883,223.03,127.871,223.03z"/>
	<path style="fill:#194F82;" d="M198.788,223.03h-26.893c-6.012,0-10.925,4.848-10.925,10.925c0,6.012,4.848,10.925,10.925,10.925
		h26.893c6.012,0,10.925-4.848,10.925-10.925C209.713,227.879,204.865,223.03,198.788,223.03z"/>
	<path style="fill:#194F82;" d="M127.871,277.075h-26.893c-6.012,0-10.925,4.848-10.925,10.925c0,6.077,4.848,10.925,10.925,10.925
		h26.893c6.012,0,10.925-4.848,10.925-10.925C138.796,281.923,133.883,277.075,127.871,277.075z"/>
	<path style="fill:#194F82;" d="M198.788,277.075h-26.893c-6.012,0-10.925,4.848-10.925,10.925c0,6.077,4.848,10.925,10.925,10.925
		h26.893c6.012,0,10.925-4.848,10.925-10.925C209.713,281.923,204.865,277.075,198.788,277.075z"/>
	<path style="fill:#194F82;" d="M127.871,331.119h-26.893c-6.012,0-10.925,4.848-10.925,10.925c0,6.012,4.848,10.925,10.925,10.925
		h26.893c6.012,0,10.925-4.849,10.925-10.925S133.883,331.119,127.871,331.119z"/>
	<path style="fill:#194F82;" d="M198.788,331.119h-26.893c-6.012,0-10.925,4.848-10.925,10.925c0,6.012,4.848,10.925,10.925,10.925
		h26.893c6.012,0,10.925-4.849,10.925-10.925S204.865,331.119,198.788,331.119z"/>
	<path style="fill:#194F82;" d="M291.62,168.921h-26.893c-6.012,0-10.925,4.848-10.925,10.925c0,6.012,4.848,10.925,10.925,10.925
		h26.893c6.012,0,10.925-4.848,10.925-10.925S297.568,168.921,291.62,168.921z"/>
	<path style="fill:#194F82;" d="M291.62,219.152h-42.214c-6.012,0-10.925,4.848-10.925,10.925v112.032
		c0,6.012,4.848,10.925,10.925,10.925h42.214c6.012,0,10.925-4.848,10.925-10.925V230.012
		C302.545,224,297.568,219.152,291.62,219.152z M280.63,331.119h-20.364v-90.182h20.428v90.182H280.63z"/>
</g>
</svg>